<?xml version="1.0" encoding="UTF-8" standalone="no"?>

<svg
        width="33px"
        height="14px"
        viewBox="0 0 33 14"
        version="1.1"
        xmlns="http://www.w3.org/2000/svg" xmlns:xlink="http://www.w3.org/1999/xlink">


        <g id="65" stroke="#979797" transform="translate(0.000000, -9.000000)" fill-rule="nonzero" fill="#504a47">
            <path d="M0.396236884,16.77912 L6.05309113,22.4359743 C6.44361543,22.8264986 7.0767804,22.8264986 7.4673047,22.4359743 C7.85782899,22.04545 7.85782899,21.412285 7.4673047,21.0217607 L3.44648942,17.0009454 L28.7879033,17.0009454 L24.7685004,21.0203483 C24.3779762,21.4108726 24.3779762,22.0440376 24.7685004,22.4345618 C25.1590247,22.8250861 25.7921897,22.8250861 26.182714,22.4345618 L31.8395683,16.7777076 C32.0424215,16.5748543 32.139905,16.3065327 32.1320188,16.0407562 C32.1327809,15.6109006 31.9071549,15.2730122 31.5842285,15.1081543 L30.5851539,14.1090797 L26.182714,9.70663979 C25.7921897,9.3161155 25.1590247,9.3161155 24.7685004,9.70663979 C24.3779762,10.0971641 24.3779762,10.7303291 24.7685004,11.1208533 L28.6485925,15.0009454 L3.58862504,15.0009454 L7.4673047,11.1222658 C7.85782899,10.7317415 7.85782899,10.0985765 7.4673047,9.70805221 C7.0767804,9.31752792 6.44361543,9.31752792 6.05309113,9.70805221 L0.624574346,15.136569 C0.424171435,15.2542054 0.26859824,15.4405981 0.189766014,15.6646861 C0.0260850559,16.0320038 0.0949086792,16.4777918 0.396236884,16.77912 Z"
                  id="Rectangle-348"
                  stroke="none">

            </path>
        </g>

</svg>